<svg width="32" height="32" viewBox="0 0 32 32" fill="none" xmlns="http://www.w3.org/2000/svg">
<path d="M16.0406 7.85312C16.7469 7.85312 17.3219 8.42499 17.3219 9.13437V22.7125C17.3219 23.4187 16.75 23.9937 16.0406 23.9937C15.3344 23.9937 14.7594 23.4219 14.7594 22.7125V9.13124C14.7594 8.42499 15.3344 7.85312 16.0406 7.85312Z" fill="#40F99B"/>
<path d="M24.1094 15.9219C24.1094 16.6281 23.5375 17.2031 22.8281 17.2031H9.25C8.54375 17.2031 7.96875 16.6313 7.96875 15.9219C7.96875 15.2156 8.54062 14.6406 9.25 14.6406H22.8281C23.5375 14.6406 24.1094 15.2156 24.1094 15.9219Z" fill="#40F99B"/>
<path d="M2.5125 21.4406C2.5125 21.6085 2.54556 21.7747 2.60979 21.9297C2.67402 22.0848 2.76817 22.2257 2.88685 22.3444C3.00554 22.4631 3.14644 22.5572 3.3015 22.6215C3.45657 22.6857 3.62278 22.7188 3.79062 22.7188C3.95847 22.7188 4.12467 22.6857 4.27974 22.6215C4.43481 22.5572 4.57571 22.4631 4.69439 22.3444C4.81308 22.2257 4.90722 22.0848 4.97146 21.9297C5.03569 21.7747 5.06875 21.6085 5.06875 21.4406C5.06875 21.1017 4.93409 20.7766 4.69439 20.5369C4.4547 20.2972 4.1296 20.1625 3.79062 20.1625C3.45164 20.1625 3.12655 20.2972 2.88685 20.5369C2.64716 20.7766 2.5125 21.1017 2.5125 21.4406Z" fill="#40F99B"/>
<path d="M7.05 26.9156C7.05 27.0835 7.08306 27.2497 7.14729 27.4048C7.21153 27.5598 7.30567 27.7007 7.42436 27.8194C7.54304 27.9381 7.68394 28.0322 7.83901 28.0965C7.99408 28.1607 8.16028 28.1938 8.32813 28.1938C8.49597 28.1938 8.66218 28.1607 8.81725 28.0965C8.97231 28.0322 9.11321 27.9381 9.2319 27.8194C9.35058 27.7007 9.44473 27.5598 9.50896 27.4048C9.57319 27.2497 9.60625 27.0835 9.60625 26.9156C9.60625 26.5767 9.47159 26.2516 9.2319 26.0119C8.9922 25.7722 8.66711 25.6375 8.32813 25.6375C7.98915 25.6375 7.66405 25.7722 7.42436 26.0119C7.18466 26.2516 7.05 26.5767 7.05 26.9156Z" fill="#40F99B"/>
<path d="M16 1.29062C7.9 1.29062 1.33125 7.85625 1.33125 15.9594C1.33125 18.1156 1.79688 20.1656 2.63438 22.0094L4.95313 20.9031C4.275 19.3937 3.9 17.7219 3.9 15.9594C3.9 9.27812 9.31563 3.85937 16 3.85937C22.6844 3.85937 28.1 9.27499 28.1 15.9594C28.1 22.6437 22.6813 28.0594 16 28.0594C13.4406 28.0594 11.0656 27.2656 9.1125 25.9094L7.5125 27.6969C7.55938 27.7187 7.59063 27.7625 7.59063 27.8094C7.59063 27.8562 7.6 27.9094 7.55313 27.9312C9.95 29.6344 12.8406 30.625 16.0031 30.625C24.1031 30.625 30.6719 24.0594 30.6719 15.9562C30.6719 7.85312 24.1 1.29062 16 1.29062Z" fill="#40F99B"/>
</svg>
