<svg width="24" height="24" viewBox="0 0 24 24" fill="none" xmlns="http://www.w3.org/2000/svg">
<path d="M19.1246 4.788C19.4467 5.11152 19.6275 5.54947 19.6275 6.006C19.6275 6.46253 19.4467 6.90048 19.1246 7.224L7.212 19.176C6.89053 19.4974 6.45457 19.6779 6 19.6779C5.54544 19.6779 5.10948 19.4974 4.788 19.176C4.46589 18.8525 4.28505 18.4145 4.28505 17.958C4.28505 17.5015 4.46589 17.0635 4.788 16.74L16.7006 4.788C17.0221 4.46662 17.458 4.28608 17.9126 4.28608C18.3671 4.28608 18.8031 4.46662 19.1246 4.788Z" fill="#F2F2F2"/>
<path d="M19.2103 19.176C18.887 19.4985 18.449 19.6797 17.9923 19.6797C17.5356 19.6797 17.0976 19.4985 16.7743 19.176L4.82229 7.22057C4.49971 6.89753 4.31866 6.45959 4.31899 6.00307C4.31931 5.54655 4.50097 5.10886 4.824 4.78628C5.14703 4.4637 5.58498 4.28266 6.0415 4.28298C6.49801 4.2833 6.93571 4.46496 7.25829 4.788L19.2103 16.7434C19.3707 16.9028 19.498 17.0923 19.5849 17.301C19.6718 17.5097 19.7165 17.7336 19.7165 17.9597C19.7165 18.1858 19.6718 18.4097 19.5849 18.6184C19.498 18.8272 19.3707 19.0167 19.2103 19.176Z" fill="#F2F2F2"/>
</svg>
